<?xml version="1.0" encoding="utf-8"?>
<!-- Generator: Adobe Illustrator 22.1.0, SVG Export Plug-In . SVG Version: 6.00 Build 0)  -->
<svg version="1.1" id="Capa_1" xmlns="http://www.w3.org/2000/svg" xmlns:xlink="http://www.w3.org/1999/xlink" x="0px" y="0px"
	 viewBox="0 0 173.8 54.3" style="enable-background:new 0 0 173.8 54.3;" xml:space="preserve">
<style type="text/css">
	.st0{fill:#4D4D4D;}
	.st1{fill:#999999;}
	.st2{fill:#1E98E2;}
	.st3{fill:url(#SVGID_1_);}
	.st4{fill:url(#SVGID_2_);}
	.st5{fill:url(#SVGID_3_);}
</style>
<g>
	<g>
		<g>
			<path class="st0" d="M63,18.2c0,1.5,0.9,1.8,1.4,1.8c0.8,0,1.3-0.7,1.3-1.3c0-0.7-0.6-0.9-2.6-1.8c-0.9-0.4-3.2-1.3-3.2-3.8
				c0-2.7,2.4-4.1,4.6-4.1c1.8,0,4.4,0.9,4.5,4.1h-3.3c-0.1-0.4-0.2-1.3-1.2-1.3c-0.6,0-1.2,0.4-1.2,1c0,0.6,0.4,0.8,2.7,1.8
				c2.5,1.1,3.1,2.3,3.1,3.8c0,2.1-1.1,4.2-4.6,4.2c-3.5,0-4.9-2-4.8-4.6H63z"/>
			<path class="st0" d="M72.4,9.3h3.4v13.2h-3.4V9.3z"/>
			<path class="st0" d="M87.9,17.4l-0.1-8.1h3.2v13.2h-2.9l-5.1-8l0.1,8h-3.2V9.3h2.9L87.9,17.4z"/>
			<path class="st0" d="M95.3,9.3h7.5v3h-4.1v2.1h4v3h-4v2.3h4.1v3h-7.5V9.3z"/>
			<path class="st0" d="M119.6,17.6c-0.8,3.1-3.5,5.2-6.7,5.2c-4.1,0-7-3.3-7-6.9c0-3.4,2.6-6.8,6.9-6.8c4.1,0,6.4,3.2,6.7,5.3h-3.5
				c-0.4-1-1.4-2.3-3.2-2.3c-2.3,0-3.5,2-3.5,3.9c0,2,1.4,3.9,3.6,3.9c2.1,0,3-1.8,3.2-2.2H119.6z"/>
			<path class="st1" d="M124.8,12.3h-2.6v-3h8.6v3h-2.6v10.3h-3.4V12.3z"/>
			<path class="st1" d="M133.9,9.3h7.5v3h-4.1v2.1h4v3h-4v2.3h4.1v3h-7.5V9.3z"/>
			<path class="st1" d="M158.2,17.6c-0.8,3.1-3.5,5.2-6.7,5.2c-4.1,0-7-3.3-7-6.9c0-3.4,2.6-6.8,6.9-6.8c4.1,0,6.4,3.2,6.7,5.3h-3.5
				c-0.4-1-1.4-2.3-3.2-2.3c-2.3,0-3.5,2-3.5,3.9c0,2,1.4,3.9,3.6,3.9c2.1,0,3-1.8,3.2-2.2H158.2z"/>
			<path class="st1" d="M161.8,22.5V9.3h3.4v5h4.3v-5h3.4v13.2h-3.4v-5.3h-4.3v5.3H161.8z"/>
		</g>
		<g>
			<path class="st2" d="M62.3,30.4h-3v-1.9h8.2v1.9h-3v11.4h-2.1V30.4z"/>
			<path class="st2" d="M73.3,28.5h3.7c2.1,0,3.1,0.3,3.8,0.8c1.1,0.7,1.8,2.1,1.8,3.6c0,0.9-0.3,1.8-0.8,2.5
				c-0.7,0.9-1.5,1.3-2.6,1.4l3.1,4.9h-2.2l-3.6-6h0.5c0.9,0,2,0,2.6-0.6c0.6-0.5,0.9-1.3,0.9-2.2c0-0.9-0.4-1.8-1.1-2.2
				c-0.6-0.4-1.3-0.4-2.3-0.4h-1.8v11.4h-2.1V28.5z"/>
			<path class="st2" d="M90,41.8h-2.3l5.4-13.2H95l5.3,13.2h-2.3l-1.3-3.1h-5.6L90,41.8z M94,31l-2.2,6h4.5L94,31z"/>
			<path class="st2" d="M106.3,28.5h2.1v13.2h-2.1V28.5z"/>
			<path class="st2" d="M124.3,38.6l0-10.1h2v13.2h-1.9l-6.9-10.1l0,10.1h-2V28.5h2L124.3,38.6z"/>
			<path class="st2" d="M133.3,28.5h2.1v13.2h-2.1V28.5z"/>
			<path class="st2" d="M151.4,38.6l0-10.1h2v13.2h-1.9l-6.9-10.1l0,10.1h-2V28.5h2L151.4,38.6z"/>
			<path class="st2" d="M170.8,32.3c-0.3-0.5-0.8-0.9-1.2-1.3c-0.8-0.6-1.7-0.9-2.8-0.9c-2.5,0-4.8,1.9-4.8,5c0,3.2,2.4,5,4.8,5
				c1.2,0,2.3-0.4,3.1-1c0.8-0.6,1.4-1.4,1.6-2.4h-5.7v-1.7h8.2c0,0.8-0.1,2-0.6,3c-1.2,2.6-4,4-6.5,4c-3.9,0-7-3-7-6.9
				c0-4,3.1-6.8,7-6.8c2.8,0,5.4,1.7,6.3,4H170.8z"/>
		</g>
	</g>
	<g>
		
			<linearGradient id="SVGID_1_" gradientUnits="userSpaceOnUse" x1="1444.4264" y1="446.5582" x2="1481.7676" y2="446.5582" gradientTransform="matrix(0.7071 -0.7071 0.7071 0.7071 -1324.3843 746.3438)">
			<stop  offset="0.1825" style="stop-color:#08ADFF"/>
			<stop  offset="0.5975" style="stop-color:#1E98E2"/>
		</linearGradient>
		<path class="st3" d="M15,16.6c1.8-1.8,4.4-2.2,6.6-1.3L30.8,6l-4.4-4.4c-2.2-2.2-5.8-2.2-8,0L2.8,17.4c-3.7,3.7-3.7,9.7,0,13.4
			l11,11c2.2,2.2,5.8,2.2,8,0l0,0l5.3-5.3c-0.9-2.2-0.5-4.8,1.3-6.6c2.3-2.2,6-2.3,8.3-0.1c2.5,2.3,2.6,6.3,0.2,8.7
			c-1.8,1.8-4.4,2.2-6.5,1.3l-9.3,9.3l3,3c2.7,2.7,7.4,3,10.3,0.4c0.1-0.1,0.2-0.2,0.4-0.3L47.8,39c2-2,3.3-4.6,3.5-7.3
			c0.2-2.9-0.7-5.9-2.8-8.1L38.1,13.3c-2.2-2.2-5.8-2.2-8,0l0,0l-5.3,5.3c0.9,2.2,0.5,4.8-1.3,6.5c-2.4,2.4-6.3,2.3-8.7-0.2
			C12.7,22.6,12.8,18.9,15,16.6z"/>
		
			<linearGradient id="SVGID_2_" gradientUnits="userSpaceOnUse" x1="17.7013" y1="20.4702" x2="23.1445" y2="20.4702" gradientTransform="matrix(1 0 0 1 -1.1885 0.3605)">
			<stop  offset="0.1825" style="stop-color:#08ADFF"/>
			<stop  offset="0.5975" style="stop-color:#1E98E2"/>
		</linearGradient>
		<circle class="st4" cx="19.2" cy="20.8" r="2.7"/>
		
			<linearGradient id="SVGID_3_" gradientUnits="userSpaceOnUse" x1="31.1859" y1="33.759" x2="36.6291" y2="33.759" gradientTransform="matrix(1 0 0 1 -1.1885 0.3605)">
			<stop  offset="0.1825" style="stop-color:#08ADFF"/>
			<stop  offset="0.5975" style="stop-color:#1E98E2"/>
		</linearGradient>
		<circle class="st5" cx="32.7" cy="34.1" r="2.7"/>
	</g>
</g>
</svg>
