<?xml version="1.0" encoding="utf-8"?>
<!-- Generator: Adobe Illustrator 22.1.0, SVG Export Plug-In . SVG Version: 6.00 Build 0)  -->
<svg version="1.1" id="Capa_1" xmlns="http://www.w3.org/2000/svg" xmlns:xlink="http://www.w3.org/1999/xlink" x="0px" y="0px"
	 viewBox="0 0 102.2 96.5" style="enable-background:new 0 0 102.2 96.5;" xml:space="preserve">
<style type="text/css">
	.st0{fill:#FFFFFF;}
</style>
<g>
	<path class="st0" d="M6,54.6h90.3c1.9,0,3.4-1.5,3.4-3.4V3.4c0-1.9-1.5-3.4-3.4-3.4H6C4.2,0,2.7,1.5,2.7,3.4v47.8
		C2.7,53.1,4.2,54.6,6,54.6L6,54.6z M9.4,6.8H93v41.1H9.4V6.8z M9.4,6.8"/>
	<path class="st0" d="M51.2,8c-10.7,0-19.3,8.7-19.3,19.3c0,10.7,8.7,19.3,19.3,19.3c10.7,0,19.3-8.7,19.3-19.3
		C70.5,16.6,61.9,8,51.2,8L51.2,8z M51.2,39.9c-6.9,0-12.6-5.6-12.6-12.6c0-6.9,5.6-12.6,12.6-12.6c6.9,0,12.6,5.6,12.6,12.6
		C63.8,34.2,58.1,39.9,51.2,39.9L51.2,39.9z M51.2,39.9"/>
	<path class="st0" d="M55.7,26l-7.4-4.6c-0.5-0.3-1.1-0.3-1.5,0S46,22.2,46,22.7v9.1c0,0.6,0.3,1.1,0.8,1.3c0.2,0.1,0.5,0.2,0.7,0.2
		c0.3,0,0.6-0.1,0.8-0.2l7.4-4.6c0.4-0.3,0.7-0.8,0.7-1.3C56.4,26.8,56.2,26.3,55.7,26L55.7,26z M55.7,26"/>
	<path class="st0" d="M62.1,80.7c1.9-2.4,3.1-5.5,3.1-8.8c0-7.7-6.3-14-14-14c-7.7,0-14,6.3-14,14c0,3.3,1.2,6.4,3.1,8.8
		c-3.5,3.1-5.7,7.6-5.7,12.5c0,1.9,1.5,3.4,3.4,3.4h26.4c1.9,0,3.4-1.5,3.4-3.4C67.8,88.3,65.6,83.8,62.1,80.7L62.1,80.7z
		 M51.2,64.6c4,0,7.2,3.3,7.2,7.2c0,4-3.2,7.2-7.2,7.2c-4,0-7.2-3.3-7.2-7.2C44,67.9,47.2,64.6,51.2,64.6L51.2,64.6z M42,89.8
		c0.7-2,2.1-3.7,3.9-4.9c1.6,0.7,3.4,1,5.2,1c1.9,0,3.6-0.4,5.2-1c1.8,1.2,3.2,2.9,3.9,4.9H42z M42,89.8"/>
	<path class="st0" d="M96.5,80.7c1.9-2.4,3.1-5.5,3.1-8.8c0-7.7-6.3-14-14-14s-14,6.3-14,14c0,3.3,1.2,6.4,3.1,8.8
		c-3.5,3.1-5.7,7.6-5.7,12.5c0,1.9,1.5,3.4,3.4,3.4h26.4c1.9,0,3.4-1.5,3.4-3.4C102.2,88.3,100.1,83.8,96.5,80.7L96.5,80.7z
		 M85.6,64.6c4,0,7.2,3.3,7.2,7.2c0,4-3.2,7.2-7.2,7.2c-4,0-7.2-3.3-7.2-7.2C78.4,67.9,81.6,64.6,85.6,64.6L85.6,64.6z M76.5,89.8
		c0.7-2,2.1-3.7,3.9-4.9c1.6,0.7,3.4,1,5.2,1c1.9,0,3.6-0.4,5.2-1c1.8,1.2,3.2,2.9,3.9,4.9H76.5z M76.5,89.8"/>
	<path class="st0" d="M27.5,80.7c1.9-2.4,3.1-5.5,3.1-8.8c0-7.7-6.3-14-14-14s-14,6.3-14,14c0,3.3,1.2,6.4,3.1,8.8
		C2.1,83.8,0,88.3,0,93.1c0,1.9,1.5,3.4,3.4,3.4h26.4c1.9,0,3.4-1.5,3.4-3.4C33.1,88.3,31,83.8,27.5,80.7L27.5,80.7z M16.6,64.6
		c4,0,7.2,3.3,7.2,7.2c0,4-3.2,7.2-7.2,7.2c-4,0-7.2-3.3-7.2-7.2C9.3,67.9,12.6,64.6,16.6,64.6L16.6,64.6z M7.4,89.8
		c0.7-2,2.1-3.7,3.9-4.9c1.6,0.7,3.4,1,5.2,1c1.9,0,3.6-0.4,5.2-1c1.8,1.2,3.2,2.9,3.9,4.9H7.4z M7.4,89.8"/>
</g>
</svg>
