<?xml version="1.0" encoding="utf-8"?>
<!-- Generator: Adobe Illustrator 22.1.0, SVG Export Plug-In . SVG Version: 6.00 Build 0)  -->
<svg version="1.1" id="Capa_1" xmlns="http://www.w3.org/2000/svg" xmlns:xlink="http://www.w3.org/1999/xlink" x="0px" y="0px"
	 viewBox="0 0 105.2 105.2" style="enable-background:new 0 0 105.2 105.2;" xml:space="preserve">
<style type="text/css">
	.st0{fill:#FFFFFF;}
</style>
<g>
	<path class="st0" d="M101.9,5.5h-46V3.3c0-1.8-1.5-3.3-3.3-3.3c-1.8,0-3.3,1.5-3.3,3.3v2.2h-46C1.5,5.5,0,7,0,8.8v11
		c0,1.8,1.5,3.3,3.3,3.3h2.2V80c0,1.8,1.5,3.3,3.3,3.3H46L33.5,99.9c-1.1,1.5-0.8,3.5,0.7,4.6c0.6,0.4,1.3,0.7,2,0.7
		c1,0,2-0.5,2.7-1.3L49.3,90v12c0,1.8,1.5,3.3,3.3,3.3c1.8,0,3.3-1.5,3.3-3.3V90l10.5,13.9c0.7,0.9,1.6,1.3,2.7,1.3
		c0.7,0,1.4-0.2,2-0.7c1.5-1.1,1.8-3.2,0.7-4.6L59.3,83.3h37.2c1.8,0,3.3-1.5,3.3-3.3V23.1h2.2c1.8,0,3.3-1.5,3.3-3.3v-11
		C105.2,7,103.8,5.5,101.9,5.5L101.9,5.5z M6.6,16.4v-4.3h92v4.3H6.6z M93.1,76.7h-81V23.1h81V76.7z M93.1,76.7"/>
	<path class="st0" d="M25.2,50.5h49.3c1.8,0,3.3-1.5,3.3-3.3c0-1.8-1.5-3.3-3.3-3.3H25.2c-1.8,0-3.3,1.5-3.3,3.3
		C21.9,49,23.4,50.5,25.2,50.5L25.2,50.5z M25.2,50.5"/>
	<path class="st0" d="M25.2,39.5h11c1.8,0,3.3-1.5,3.3-3.3c0-1.8-1.5-3.3-3.3-3.3h-11c-1.8,0-3.3,1.5-3.3,3.3
		C21.9,38,23.4,39.5,25.2,39.5L25.2,39.5z M25.2,39.5"/>
	<path class="st0" d="M25.2,61.4h32.9c1.8,0,3.3-1.5,3.3-3.3c0-1.8-1.5-3.3-3.3-3.3H25.2c-1.8,0-3.3,1.5-3.3,3.3
		C21.9,59.9,23.4,61.4,25.2,61.4L25.2,61.4z M25.2,61.4"/>
</g>
</svg>
