<?xml version="1.0" encoding="utf-8"?>
<!-- Generator: Adobe Illustrator 22.1.0, SVG Export Plug-In . SVG Version: 6.00 Build 0)  -->
<svg version="1.1" id="Capa_1" xmlns="http://www.w3.org/2000/svg" xmlns:xlink="http://www.w3.org/1999/xlink" x="0px" y="0px"
	 viewBox="0 0 83.5 101.8" style="enable-background:new 0 0 83.5 101.8;" xml:space="preserve">
<style type="text/css">
	.st0{fill:#08ADFF;}
</style>
<g>
	<path class="st0" d="M26.9,48.1c-8.2,0-14.9,6.7-14.9,14.9c0,4.9,2.3,9.2,6,11.9v11.9c0,1,0.5,2,1.4,2.5c0.9,0.5,2,0.6,2.9,0.1
		l4.6-2.3l4.6,2.3c0.9,0.5,2,0.4,2.9-0.1c0.9-0.5,1.4-1.5,1.4-2.5V75c3.6-2.7,6-7.1,6-11.9C41.8,54.8,35.1,48.1,26.9,48.1L26.9,48.1
		z M29.8,82.1l-1.6-0.8c-0.8-0.4-1.8-0.4-2.7,0l-1.6,0.8v-4.4c1,0.2,2,0.3,3,0.3c1,0,2-0.1,3-0.3V82.1z M26.9,72c-4.9,0-9-4-9-9
		s4-9,9-9s9,4,9,9S31.8,72,26.9,72L26.9,72z M26.9,72"/>
	<path class="st0" d="M3,0C1.3,0,0,1.3,0,3v95.9c0,1.6,1.3,3,3,3h53.7c0.8,0,1.6-0.3,2.1-0.9l23.9-23.9c0.5-0.5,0.9-1.3,0.9-2.1V3
		c0-1.6-1.3-3-3-3H3z M6,6h71.6v66H56.7c-1.6,0-3,1.3-3,3v20.9H6V6z M73.4,78L59.7,91.7V78H73.4z M73.4,78"/>
	<path class="st0" d="M14.9,30.2h53.7c1.6,0,3-1.3,3-3V14.9c0-1.6-1.3-3-3-3H14.9c-1.6,0-3,1.3-3,3v12.3
		C11.9,28.9,13.3,30.2,14.9,30.2L14.9,30.2z M17.9,17.9h47.7v6.4H17.9V17.9z M17.9,17.9"/>
	<path class="st0" d="M14.9,42.2h53.7c1.6,0,3-1.3,3-3c0-1.6-1.3-3-3-3H14.9c-1.6,0-3,1.3-3,3C11.9,40.8,13.3,42.2,14.9,42.2
		L14.9,42.2z M14.9,42.2"/>
	<path class="st0" d="M68.6,48.1H50.7c-1.6,0-3,1.3-3,3c0,1.6,1.3,3,3,3h17.9c1.6,0,3-1.3,3-3C71.6,49.5,70.3,48.1,68.6,48.1
		L68.6,48.1z M68.6,48.1"/>
	<path class="st0" d="M68.6,66c1.6,0,3-1.3,3-3c0-1.6-1.3-3-3-3H50.7c-1.6,0-3,1.3-3,3c0,1.6,1.3,3,3,3H68.6z M68.6,66"/>
</g>
</svg>
