<?xml version="1.0" encoding="utf-8"?>
<!-- Generator: Adobe Illustrator 22.1.0, SVG Export Plug-In . SVG Version: 6.00 Build 0)  -->
<svg version="1.1" id="Capa_1" xmlns="http://www.w3.org/2000/svg" xmlns:xlink="http://www.w3.org/1999/xlink" x="0px" y="0px"
	 viewBox="0 0 23.5 23.5" style="enable-background:new 0 0 23.5 23.5;" xml:space="preserve">
<style type="text/css">
	.st0{fill-rule:evenodd;clip-rule:evenodd;fill:#08ADFF;}
</style>
<g>
	<path class="st0" d="M16.8,9.4c0-0.1,0-0.2,0-0.4c0.5-0.4,1-0.9,1.3-1.4c-0.5,0.2-1,0.4-1.5,0.4c0.5-0.3,1-0.9,1.1-1.5
		c-0.5,0.3-1.1,0.5-1.6,0.6c-0.5-0.5-1.1-0.9-1.9-0.9c-1.4,0-2.6,1.2-2.6,2.7c0,0.2,0,0.4,0.1,0.6c-2.2-0.1-4.1-1.3-5.4-3
		C6.1,7.1,6,7.6,6,8.1c0,1,0.5,1.8,1.2,2.3c-0.4,0-0.8-0.1-1.2-0.4v0c0,1.3,0.9,2.5,2.1,2.7c-0.2,0.1-0.4,0.1-0.7,0.1
		c-0.2,0-0.3,0-0.5-0.1c0.3,1.1,1.3,1.9,2.4,1.9c-0.9,0.7-2,1.2-3.2,1.2c-0.2,0-0.4,0-0.6,0c1.1,0.8,2.5,1.3,4,1.3
		C14.2,17.2,16.8,13,16.8,9.4L16.8,9.4z M16.8,9.4"/>
	<path class="st0" d="M23.5,11.8C23.5,5.3,18.3,0,11.8,0C5.3,0,0,5.3,0,11.8c0,6.5,5.3,11.8,11.8,11.8
		C18.3,23.5,23.5,18.3,23.5,11.8L23.5,11.8z M1.1,11.8c0-5.9,4.8-10.7,10.7-10.7s10.7,4.8,10.7,10.7s-4.8,10.7-10.7,10.7
		S1.1,17.7,1.1,11.8L1.1,11.8z M1.1,11.8"/>
</g>
</svg>
