<?xml version="1.0" encoding="utf-8"?>
<!-- Generator: Adobe Illustrator 22.1.0, SVG Export Plug-In . SVG Version: 6.00 Build 0)  -->
<svg version="1.1" id="Capa_1" xmlns="http://www.w3.org/2000/svg" xmlns:xlink="http://www.w3.org/1999/xlink" x="0px" y="0px"
	 viewBox="0 0 23.5 23.5" style="enable-background:new 0 0 23.5 23.5;" xml:space="preserve">
<style type="text/css">
	.st0{fill-rule:evenodd;clip-rule:evenodd;fill:#08ADFF;}
</style>
<g>
	<path class="st0" d="M23.5,11.8C23.5,5.3,18.3,0,11.8,0C5.3,0,0,5.3,0,11.8c0,6.5,5.3,11.8,11.8,11.8
		C18.3,23.5,23.5,18.3,23.5,11.8L23.5,11.8z M1.1,11.8c0-5.9,4.8-10.7,10.7-10.7s10.7,4.8,10.7,10.7s-4.8,10.7-10.7,10.7
		S1.1,17.7,1.1,11.8L1.1,11.8z M1.1,11.8"/>
	<path class="st0" d="M12.2,18.6v-6.8h2.2l0.4-2.3h-2.6V8.4c0-0.6,0.2-1.1,1-1.1h1.7V5h-2.4c-2,0-2.6,1.3-2.6,3.2v1.4H8.6v2.3H10
		v6.8H12.2z M12.2,18.6"/>
</g>
</svg>
